<svg width="207" height="210" viewBox="0 0 207 210" fill="none" xmlns="http://www.w3.org/2000/svg">
<g id="Group 10831">
<path id="Ellipse 803" d="M152.602 57.7244C154.175 56.1728 156.716 56.183 158.181 57.8369C169.306 70.4 175.854 86.3945 176.658 103.166C177.462 119.923 172.48 136.349 162.617 149.716C161.304 151.496 158.768 151.727 157.066 150.313L146.284 141.358C144.587 139.948 144.366 137.439 145.634 135.633C152.077 126.456 155.313 115.341 154.769 104.011C154.225 92.6714 149.93 81.839 142.62 73.1885C141.194 71.5011 141.197 68.9777 142.77 67.4261L152.602 57.7244Z" fill="#EDE1FF"/>
<path id="Ellipse 804" d="M150.641 54.3862C152.178 52.8001 152.146 50.2583 150.478 48.8101C138.469 38.3855 123.339 32.1597 107.395 31.1531C90.1173 30.0624 73.0171 35.1725 59.1705 45.5643C45.3239 55.956 35.6395 70.9474 31.8594 87.842C28.3711 103.432 30.1217 119.699 36.776 134.142C37.7004 136.148 40.1319 136.89 42.0845 135.856L54.2932 129.396C56.2458 128.362 56.9751 125.947 56.0983 123.919C51.8461 114.086 50.7919 103.126 53.1459 92.6049C55.792 80.7786 62.571 70.2847 72.2637 63.0104C81.9563 55.7362 93.9264 52.1591 106.021 52.9227C116.78 53.6019 127.01 57.6765 135.263 64.5066C136.965 65.9151 139.488 65.8897 141.026 64.3036L150.641 54.3862Z" fill="#032282"/>
<path id="Ellipse 805" d="M43.8288 138.956C41.9323 140.089 41.3042 142.552 42.5397 144.383C47.9793 152.446 54.9895 159.347 63.1649 164.665C72.4596 170.712 83.0141 174.553 94.0212 175.894C105.028 177.235 116.196 176.04 126.671 172.402C135.884 169.202 144.346 164.186 151.562 157.665C153.201 156.184 153.183 153.642 151.614 152.087L141.804 142.363C140.235 140.808 137.712 140.833 136.038 142.275C131.188 146.454 125.584 149.689 119.514 151.797C112.182 154.344 104.364 155.18 96.6591 154.241C88.9542 153.302 81.566 150.614 75.0597 146.381C69.6733 142.877 65.0095 138.391 61.3049 133.17C60.0265 131.369 57.5833 130.739 55.6868 131.872L43.8288 138.956Z" fill="#F4BE37"/>
</g>
</svg>
